<svg width="587" height="644" viewBox="0 0 587 644" fill="none" xmlns="http://www.w3.org/2000/svg">
<g opacity="0.5">
<mask id="mask0_5_248" style="mask-type:alpha" maskUnits="userSpaceOnUse" x="12" y="525" width="333" height="111">
<g opacity="0.5">
<g opacity="0.5">
<path opacity="0.5" d="M12.1911 584.485L136.69 635.993L344.293 580.62L273.684 568.575L140.915 525.202L12.1911 584.485Z" fill="url(#paint0_linear_5_248)"/>
</g>
</g>
</mask>
<g mask="url(#mask0_5_248)">
<path opacity="0.5" d="M12.1911 584.485L136.69 635.993L344.293 580.62L273.684 568.575L140.915 525.202L12.1911 584.485Z" fill="url(#paint1_linear_5_248)"/>
</g>
</g>
<g opacity="0.5">
<mask id="mask1_5_248" style="mask-type:alpha" maskUnits="userSpaceOnUse" x="106" y="357" width="391" height="191">
<g opacity="0.5">
<g opacity="0.5">
<path opacity="0.5" d="M277.999 359.264L493.243 461.47C498.007 463.717 498.007 470.504 493.243 472.796L338.81 545.967C334.001 548.259 328.427 548.259 323.618 546.012L110.442 446.008C104.779 443.357 104.689 435.267 110.352 432.525L260.155 359.354C265.773 356.612 272.335 356.567 277.999 359.264Z" fill="url(#paint2_linear_5_248)"/>
</g>
</g>
</mask>
<g mask="url(#mask1_5_248)">
<path opacity="0.5" d="M277.999 359.264L493.243 461.47C498.007 463.717 498.007 470.504 493.243 472.796L338.81 545.967C334.001 548.259 328.427 548.259 323.618 546.012L110.442 446.008C104.779 443.357 104.689 435.267 110.352 432.525L260.155 359.354C265.773 356.612 272.335 356.567 277.999 359.264Z" fill="url(#paint3_linear_5_248)"/>
</g>
</g>
<path d="M27.5624 224.742C27.5624 224.742 20.461 238.675 27.5624 252.608C34.6638 266.541 58.0804 313.15 58.0804 313.15L98.4864 282.856L89.767 235.978L110.217 277.598L151.028 260.339L129.454 207.842C129.499 207.842 63.2042 258.9 27.5624 224.742Z" fill="url(#paint4_linear_5_248)"/>
<path d="M65.002 91.2089C65.002 91.2089 36.0121 106.311 34.4391 117.637C32.866 128.963 25.6747 221.82 25.6747 221.82C25.6747 221.82 38.1695 246.675 77.0024 235.978C115.835 225.281 129.544 207.842 129.544 207.842L127.027 134.222L133.634 143.166C133.634 143.166 139.297 142.402 145.544 137.368C151.837 132.334 153.994 128.289 153.994 128.289C153.994 128.289 135.387 74.624 128.15 73.3655C120.914 72.107 108.824 76.4218 108.824 76.4218L65.002 91.2089Z" fill="white"/>
<path d="M259.077 459.178L216.378 440.93L132.016 483.178L151.342 514.146L259.077 459.178Z" fill="url(#paint5_linear_5_248)" stroke="#9AB4DB" stroke-width="0.25" stroke-miterlimit="10"/>
<path d="M322.764 511.314L332.158 528.888C332.158 528.888 326.854 536.843 318.18 538.057C309.505 539.27 302.764 534.911 302.764 534.911L300.741 520.708L322.764 511.314Z" fill="url(#paint6_linear_5_248)"/>
<path d="M55.7882 429.963C55.7882 429.963 52.1476 465.245 67.6987 472.796C83.2499 480.347 88.4186 475.133 97.3627 481.74C106.307 488.347 130.757 493.516 152.421 481.74C174.085 469.964 257.369 429.514 263.032 433.244C268.695 437.019 299.977 527.135 299.977 527.135C299.977 527.135 305.056 530.911 314.764 527.135C324.472 523.36 326.135 513.472 326.135 513.472C326.135 513.472 302.089 384.298 287.932 373.017C273.819 361.736 230.851 373.601 230.851 373.601C230.851 373.601 263.931 369.961 258.312 362.32C252.649 354.679 183.703 367.938 154.039 378.276C124.375 388.613 55.7882 429.963 55.7882 429.963Z" fill="url(#paint7_linear_5_248)"/>
<path d="M228.109 213.326L443.353 315.532C448.117 317.779 448.117 324.566 443.353 326.858L288.92 400.029C284.111 402.321 278.538 402.321 273.729 400.074L60.5075 300.071C54.8443 297.419 54.7544 289.329 60.4176 286.587L210.221 213.461C215.839 210.674 222.446 210.629 228.109 213.326Z" fill="url(#paint8_linear_5_248)"/>
<path d="M228.109 206.988L443.353 309.194C448.117 311.442 448.117 318.229 443.353 320.521L288.92 393.692C284.111 395.984 278.538 395.984 273.729 393.737L60.5075 293.778C54.8443 291.126 54.7544 283.036 60.4176 280.295L210.221 207.123C215.839 204.337 222.446 204.337 228.109 206.988Z" fill="url(#paint9_linear_5_248)" stroke="#9AB4DB" stroke-width="0.25" stroke-miterlimit="10"/>
<path d="M395.486 162.178L378.047 278.362L376.879 286.182C376.429 289.194 370.182 292.969 367.395 291.711L248.425 233.057C245.188 231.574 243.346 228.113 243.84 224.607L244.919 217.371L258.402 103.03C259.077 98.3552 267.796 95.5236 272.111 97.5462L390.138 152.245C393.958 153.998 396.115 158.043 395.486 162.178Z" fill="url(#paint10_linear_5_248)"/>
<path d="M390.632 163.841L373.193 280.025L372.025 287.845C371.575 290.857 368.339 292.565 365.597 291.306L243.57 234.72C240.334 233.237 238.492 229.776 238.986 226.27L240.065 219.034L257.279 104.603C257.953 99.9283 262.987 97.2316 267.257 99.2092L385.284 153.908C389.104 155.661 391.261 159.706 390.632 163.841Z" fill="url(#paint11_linear_5_248)"/>
<path d="M390.632 163.841L373.193 280.025L240.065 219.034L257.279 104.603C257.953 99.9283 262.987 97.2316 267.257 99.2092L385.284 153.908C389.104 155.661 391.261 159.706 390.632 163.841Z" fill="url(#paint12_linear_5_248)"/>
<path d="M274.852 280.564L287.347 273.912C291.168 271.98 293.595 268.069 293.595 263.8V257.912L329.776 274.542V280.969C329.776 284.879 327.573 288.52 324.068 290.272L312.741 296.385L310.719 297.329L274.852 280.564Z" fill="url(#paint13_linear_5_248)"/>
<path d="M311.078 295.396V297.599L274.852 280.564V278.766L311.078 295.396Z" fill="url(#paint14_linear_5_248)"/>
<path d="M274.852 278.766L285.864 273.238C289.684 271.305 292.111 267.395 292.111 263.125V257.237L328.293 273.867V280.295C328.293 284.205 326.09 287.845 322.585 289.598L311.078 295.396L274.852 278.766Z" fill="url(#paint15_linear_5_248)"/>
<path opacity="0.8" d="M347.934 158.447L333.866 232.697C333.416 235.034 331.079 236.428 328.877 235.843C329.461 235.304 329.911 234.54 330.09 233.641L344.158 159.391C344.833 155.93 343.08 152.515 339.889 151.031L261.459 114.85C261.459 114.85 261.459 114.85 261.414 114.805L238.806 104.378C238.357 104.198 237.862 104.018 237.413 103.973C238.806 102.895 240.829 102.625 242.627 103.434L265.234 113.861C265.279 113.906 265.279 113.906 265.279 113.906L343.664 150.087C346.855 151.571 348.608 154.987 347.934 158.447Z" fill="url(#paint16_linear_5_248)"/>
<path opacity="0.64" d="M344.158 159.391L330.09 233.641C329.911 234.54 329.506 235.304 328.877 235.843C327.708 236.922 325.955 237.282 324.382 236.563L245.953 200.336V200.292L221.277 188.92C218.581 187.707 217.097 184.785 217.682 181.909L231.705 108.063C232.244 105.277 234.806 103.569 237.458 103.973C237.952 104.018 238.402 104.198 238.851 104.378L261.459 114.805C261.504 114.85 261.504 114.85 261.504 114.85L339.933 151.031C343.08 152.515 344.833 155.93 344.158 159.391Z" fill="url(#paint17_linear_5_248)"/>
<path opacity="0.8" d="M409.015 95.9731L400.835 136.334C400.385 138.671 398.048 140.065 395.846 139.48C396.43 138.941 396.879 138.177 397.059 137.278L405.239 96.9169C405.913 93.4561 404.161 90.0403 400.969 88.5571L287.257 35.7461C287.257 35.7461 287.257 35.7461 287.212 35.7012L264.605 25.2738C264.155 25.0491 263.661 24.9143 263.212 24.8693C264.605 23.7906 266.627 23.521 268.425 24.33L291.033 34.7573C291.078 34.8023 291.078 34.8023 291.078 34.8023L404.79 87.6132C407.936 89.0964 409.689 92.5123 409.015 95.9731Z" fill="url(#paint18_linear_5_248)"/>
<path d="M405.239 96.9169L397.059 137.278C396.879 138.177 396.475 138.941 395.846 139.48C394.677 140.559 392.924 140.919 391.351 140.199L277.639 87.3885V87.3436L252.964 75.9274C250.267 74.7139 248.784 71.7924 249.368 68.9159L257.504 28.9594C258.043 26.1728 260.605 24.4648 263.257 24.8693C263.751 24.9143 264.2 25.0941 264.65 25.2738L287.257 35.7012C287.302 35.7461 287.302 35.7461 287.302 35.7461L401.014 88.5571C404.161 90.0403 405.913 93.4561 405.239 96.9169Z" fill="url(#paint19_linear_5_248)"/>
<g opacity="0.62">
<path opacity="0.62" d="M306.09 164.919L331.888 177.729L332.293 175.302L306.494 162.492L306.09 164.919Z" fill="#FAFFFF"/>
<path opacity="0.62" d="M305.326 169.998L331.124 182.763L331.484 180.336L305.685 167.571L305.326 169.998Z" fill="#FAFFFF"/>
<path opacity="0.62" d="M304.516 175.032L317.416 181.414L317.775 178.987L304.876 172.605L304.516 175.032Z" fill="#FAFFFF"/>
<path opacity="0.62" d="M301.64 164.605C301.64 166.942 300.067 168.47 298.089 167.976C296.112 167.481 294.539 165.189 294.539 162.852C294.539 160.515 296.112 158.987 298.089 159.481C300.067 159.975 301.64 162.268 301.64 164.605Z" fill="url(#paint20_linear_5_248)"/>
</g>
<g opacity="0.62">
<path opacity="0.62" d="M302.269 182.538L328.113 195.348L328.472 192.92L302.674 180.111L302.269 182.538Z" fill="#FAFFFF"/>
<path opacity="0.62" d="M301.505 187.572L327.304 200.381L327.663 197.954L301.865 185.145L301.505 187.572Z" fill="#FAFFFF"/>
<path opacity="0.62" d="M300.696 192.651L313.595 199.033L313.955 196.606L301.056 190.224L300.696 192.651Z" fill="#FAFFFF"/>
<path opacity="0.62" d="M297.82 182.223C297.82 184.561 296.247 186.089 294.269 185.594C292.291 185.1 290.718 182.808 290.718 180.471C290.718 178.133 292.291 176.605 294.269 177.1C296.247 177.594 297.82 179.886 297.82 182.223Z" fill="#FAFFFF"/>
</g>
<g opacity="0.62">
<path opacity="0.62" d="M298.494 200.157L324.292 212.966L324.652 210.539L298.853 197.73L298.494 200.157Z" fill="#FAFFFF"/>
<path opacity="0.62" d="M297.685 205.191L323.483 218L323.843 215.573L298.044 202.764L297.685 205.191Z" fill="#FAFFFF"/>
<path opacity="0.62" d="M296.876 210.269L309.775 216.652L310.135 214.225L297.235 207.842L296.876 210.269Z" fill="#FAFFFF"/>
<path opacity="0.62" d="M293.999 199.842C293.999 202.179 292.426 203.707 290.449 203.213C288.471 202.719 286.898 200.426 286.898 198.089C286.898 195.752 288.471 194.224 290.449 194.718C292.426 195.213 293.999 197.505 293.999 199.842Z" fill="url(#paint21_linear_5_248)"/>
</g>
<path opacity="0.67" d="M261.459 114.85L245.953 200.337L221.277 188.965C218.581 187.752 217.097 184.83 217.682 181.954L231.705 108.108C232.289 104.827 235.84 103.03 238.851 104.423L261.459 114.85Z" fill="url(#paint22_linear_5_248)"/>
<path opacity="0.5" d="M226.042 138.312L255.256 152.784L256.874 142.806L227.66 128.334L226.042 138.312Z" fill="#FAFFFF"/>
<g opacity="0.62">
<path opacity="0.62" d="M225.772 151.75L248.514 163.032L248.829 160.874L226.132 149.638L225.772 151.75Z" fill="#FAFFFF"/>
<path opacity="0.62" d="M225.053 156.2L247.795 167.481L248.155 165.324L225.412 154.043L225.053 156.2Z" fill="#FAFFFF"/>
<path opacity="0.62" d="M224.379 160.65L235.705 166.268L236.064 164.155L224.693 158.492L224.379 160.65Z" fill="#FAFFFF"/>
</g>
<g opacity="0.62">
<path opacity="0.62" d="M298.314 60.3313L394.902 107.479L395.621 102.985L299.033 55.8368L298.314 60.3313Z" fill="#FAFFFF"/>
<path opacity="0.62" d="M296.831 69.7249L377.643 109.726L378.362 105.232L297.55 65.2304L296.831 69.7249Z" fill="#FAFFFF"/>
<path opacity="0.62" d="M295.348 79.1185L348.069 105.232L348.788 100.737L296.067 74.579L295.348 79.1185Z" fill="#FAFFFF"/>
</g>
<path opacity="0.7" d="M245.099 116.333C240.559 113.771 236.289 115.434 235.57 120.064C234.851 124.693 237.907 130.491 242.447 133.053C246.986 135.615 251.211 133.907 251.975 129.323C252.694 124.693 249.638 118.85 245.099 116.333ZM244.829 117.996C246.267 118.805 247.256 120.648 247.031 122.131C246.807 123.615 245.413 124.154 243.975 123.345C242.537 122.536 241.548 120.648 241.773 119.165C242.042 117.727 243.391 117.187 244.829 117.996ZM237.817 126.446C238.267 123.525 241.009 122.446 243.885 124.064C246.762 125.682 248.739 129.368 248.245 132.334L237.817 126.446Z" fill="#FDFEF5"/>
<path opacity="0.7" d="M278.133 43.0723C269.549 38.2181 261.414 41.4093 260.02 50.1736C258.627 58.938 264.47 69.9946 273.055 74.8038C281.639 79.6579 289.729 76.4668 291.123 67.7024C292.561 58.938 286.718 47.8814 278.133 43.0723ZM277.594 46.2634C280.336 47.7915 282.224 51.3422 281.774 54.1738C281.325 56.9604 278.718 57.9942 275.976 56.466C273.234 54.8929 271.347 51.3872 271.796 48.5556C272.246 45.724 274.852 44.7352 277.594 46.2634ZM264.29 62.264C265.189 56.6907 270.313 54.6682 275.796 57.7245C281.28 60.7808 284.965 67.8372 284.111 73.4105L264.29 62.264Z" fill="#FDFEF5"/>
<path d="M261.459 134.896L290.404 148.874L279.572 210L249.908 197.055L261.459 134.896Z" fill="#FDFEF5"/>
<path d="M267.302 120.963L336.338 153.638C337.911 154.402 338.81 156.11 338.45 157.818L337.506 162.627C337.192 164.2 335.529 165.054 334.091 164.38L263.526 131.3C262.313 130.761 261.683 129.413 261.953 128.154L262.987 123.12C263.391 121.187 265.504 120.154 267.302 120.963Z" fill="#FDFEF5"/>
<path d="M223.66 170.897L245.953 181.459C246.447 181.684 246.762 182.268 246.627 182.808L245.638 187.347C245.548 187.842 245.009 188.111 244.514 187.887L221.727 177.19C221.322 177.01 221.143 176.605 221.233 176.156L222.266 171.571C222.401 170.942 223.075 170.583 223.66 170.897Z" fill="url(#paint23_linear_5_248)"/>
<g opacity="0.62">
<path opacity="0.62" d="M262.133 145.323L284.875 156.605L285.235 154.492L262.492 143.211L262.133 145.323Z" fill="#A5ADAD"/>
<path opacity="0.62" d="M261.459 149.773L284.156 161.054L284.516 158.897L261.773 147.66L261.459 149.773Z" fill="#A5ADAD"/>
<path opacity="0.62" d="M260.74 154.222L272.111 159.886L272.425 157.728L261.099 152.11L260.74 154.222Z" fill="#A5ADAD"/>
</g>
<g opacity="0.62">
<path opacity="0.62" d="M258.942 163.661L281.684 174.897L282.044 172.785L259.301 161.504L258.942 163.661Z" fill="#A5ADAD"/>
<path opacity="0.62" d="M258.268 168.066L280.965 179.347L281.325 177.234L258.582 165.953L258.268 168.066Z" fill="#A5ADAD"/>
<path opacity="0.62" d="M257.548 172.515L268.92 178.178L269.234 176.021L257.863 170.403L257.548 172.515Z" fill="#A5ADAD"/>
</g>
<g opacity="0.62">
<path opacity="0.62" d="M255.751 181.954L278.493 193.235L278.808 191.078L256.11 179.796L255.751 181.954Z" fill="#A5ADAD"/>
<path opacity="0.62" d="M255.031 186.403L277.774 197.685L278.133 195.527L255.391 184.246L255.031 186.403Z" fill="#A5ADAD"/>
<path opacity="0.62" d="M254.357 190.853L265.684 196.471L266.043 194.359L254.672 188.696L254.357 190.853Z" fill="#A5ADAD"/>
</g>
<path opacity="0.8" d="M519.581 185.774L502.636 265.687C502.232 267.89 500.029 269.148 497.962 268.609C498.546 268.114 498.951 267.395 499.086 266.541L516.03 186.628C516.659 183.437 514.996 180.201 512.03 178.853L405.913 129.592C405.913 129.592 405.914 129.592 405.869 129.547L384.789 119.794C384.34 119.614 383.935 119.48 383.486 119.435C384.789 118.446 386.677 118.176 388.34 118.94L409.419 128.693C409.464 128.738 409.464 128.738 409.464 128.738L515.58 178.044C518.547 179.347 520.21 182.583 519.581 185.774Z" fill="url(#paint24_linear_5_248)"/>
<path d="M516.075 186.673L499.13 266.586C498.951 267.44 498.546 268.114 498.007 268.654C496.928 269.642 495.265 270.002 493.827 269.328L387.621 219.978V219.933L364.609 209.326C362.092 208.202 360.743 205.46 361.238 202.764L378.137 123.255C378.632 120.648 381.059 119.075 383.486 119.435C383.935 119.48 384.385 119.614 384.789 119.794L405.869 129.547C405.914 129.592 405.914 129.592 405.914 129.592L512.075 178.853C515.041 180.246 516.659 183.437 516.075 186.673Z" fill="url(#paint25_linear_5_248)"/>
<g opacity="0.62">
<path opacity="0.62" d="M385.868 134.042L463.534 171.976L464.118 168.335L386.452 130.446L385.868 134.042Z" fill="#FAFFFF"/>
<path opacity="0.62" d="M384.699 141.593L449.646 173.774L450.23 170.178L385.284 137.997L384.699 141.593Z" fill="#FAFFFF"/>
<path opacity="0.62" d="M383.486 149.144L425.914 170.178L426.454 166.537L384.07 145.503L383.486 149.144Z" fill="#FAFFFF"/>
</g>
<g opacity="0.62">
<path opacity="0.62" d="M450.454 196.876L496.164 219.393L496.748 215.933L450.994 193.415L450.454 196.876Z" fill="#FAFFFF"/>
<path opacity="0.62" d="M449.331 204.067L482.95 221.146L483.489 217.685L449.87 200.606L449.331 204.067Z" fill="#FAFFFF"/>
<path opacity="0.62" d="M448.162 211.258L460.298 217.685L460.837 214.225L448.702 207.797L448.162 211.258Z" fill="#FAFFFF"/>
</g>
<g opacity="0.62">
<path opacity="0.62" d="M446.634 218.27L492.344 240.832L492.928 237.372L447.173 214.809L446.634 218.27Z" fill="#FAFFFF"/>
<path opacity="0.62" d="M445.51 225.461L479.13 242.54L479.669 239.08L446.05 222L445.51 225.461Z" fill="#FAFFFF"/>
<path opacity="0.62" d="M444.342 232.652L456.477 239.08L457.016 235.619L444.881 229.192L444.342 232.652Z" fill="#FAFFFF"/>
</g>
<path d="M438.814 189.325L431.577 223.394C431.487 223.753 431.353 224.068 431.083 224.247C430.633 224.652 429.914 224.832 429.285 224.517L384.025 203.483L374.182 198.943C373.103 198.449 372.519 197.28 372.744 196.157L379.935 162.223C380.16 161.099 381.193 160.425 382.227 160.605C382.407 160.65 382.587 160.695 382.811 160.784L391.801 164.919L437.061 185.954C438.364 186.583 439.083 187.976 438.814 189.325Z" fill="url(#paint26_linear_5_248)"/>
<path d="M399.801 179.796L395.531 196.246L415.487 197.909L399.801 179.796Z" fill="#FDFDFD"/>
<path opacity="0.8" d="M446.499 255.305L435.667 306.318C435.398 307.711 434.004 308.52 432.701 308.206C433.061 307.891 433.33 307.442 433.42 306.902L444.252 255.889C444.657 253.822 443.578 251.799 441.69 250.9L373.957 219.438L360.474 213.236C360.204 213.101 359.934 213.011 359.62 213.011C360.474 212.382 361.642 212.202 362.721 212.696L376.205 218.899L443.937 250.361C445.87 251.215 446.904 253.282 446.499 255.305Z" fill="url(#paint27_linear_5_248)"/>
<path d="M444.252 255.889L433.42 306.902C433.33 307.442 433.061 307.891 432.701 308.206C432.027 308.835 430.948 309.06 430.049 308.655L362.271 277.193L347.574 270.406C345.956 269.687 345.102 267.934 345.417 266.227L356.204 215.438C356.518 213.775 358.047 212.786 359.62 213.011C359.934 213.056 360.204 213.146 360.474 213.236L373.957 219.438L441.69 250.9C443.623 251.799 444.656 253.822 444.252 255.889Z" fill="url(#paint28_linear_5_248)"/>
<g opacity="0.62">
<path opacity="0.62" d="M360.474 258.361L423.442 289.508L423.802 287.306L360.788 256.159L360.474 258.361Z" fill="#FAFFFF"/>
<path opacity="0.62" d="M359.71 262.946L415.037 290.632L415.352 288.43L360.069 260.743L359.71 262.946Z" fill="#FAFFFF"/>
<path opacity="0.62" d="M358.99 267.53L389.374 282.856L389.733 280.654L359.35 265.328L358.99 267.53Z" fill="#FAFFFF"/>
</g>
<path d="M416.7 249.372L412.071 271.126C412.026 271.35 411.936 271.53 411.756 271.665C411.442 271.935 410.992 272.025 410.633 271.845L381.733 258.406L375.44 255.53C374.766 255.215 374.362 254.496 374.541 253.732L379.126 232.068C379.261 231.349 379.935 230.944 380.609 231.034C380.744 231.034 380.834 231.079 380.969 231.124L386.722 233.776L415.622 247.215C416.386 247.619 416.835 248.473 416.7 249.372Z" fill="url(#paint29_linear_5_248)"/>
<path d="M377.193 253.462L390.003 245.012L395.531 257.193L406.812 246.451L410.543 268.743L377.193 253.462Z" fill="#FDFDFD"/>
<path d="M392.295 240.832C392.295 242.226 391.081 243.304 389.553 243.304C388.025 243.304 386.812 242.181 386.812 240.832C386.812 239.439 388.025 238.36 389.553 238.36C391.081 238.36 392.295 239.439 392.295 240.832Z" fill="#FDFDFD"/>
<path d="M247.66 39.2519L236.829 90.265C236.559 91.6583 235.166 92.4674 233.862 92.1527C234.222 91.8381 234.491 91.3887 234.581 90.8493L245.413 39.7912C245.818 37.7237 244.739 35.7012 242.851 34.8023L182.579 7.02598L169.096 0.823505C168.826 0.688668 168.556 0.598777 168.242 0.598777C169.096 -0.0304593 170.264 -0.210241 171.343 0.284159L184.827 6.48664L245.099 34.2629C246.986 35.1619 248.065 37.1844 247.66 39.2519Z" fill="url(#paint30_linear_5_248)"/>
<path d="M245.413 39.7912L234.581 90.8044C234.491 91.3437 234.222 91.7932 233.862 92.1078C233.188 92.737 232.109 92.9618 231.21 92.5573L170.938 64.736L156.196 57.9492C154.578 57.2301 153.724 55.4772 154.039 53.7693L164.826 2.9809C165.141 1.31791 166.669 0.329113 168.242 0.55384C168.556 0.598786 168.826 0.688677 169.096 0.778568L182.579 6.98104L242.851 34.7574C244.739 35.7012 245.773 37.7687 245.413 39.7912Z" fill="url(#paint31_linear_5_248)"/>
<path d="M170.534 54.8929L173.635 39.3418L167.298 36.2405L164.197 51.7917L170.534 54.8929Z" fill="#FAFFFF"/>
<path d="M179.074 59.2077L183.613 38.1282L177.231 35.027L172.691 56.1064L179.074 59.2077Z" fill="#FAFFFF"/>
<path d="M187.613 63.5225L193.591 35.3416L187.209 32.2404L181.231 60.4212L187.613 63.5225Z" fill="#FAFFFF"/>
<path d="M196.153 67.8372L203.389 33.7685L197.052 30.7122L189.771 64.736L196.153 67.8372Z" fill="#FAFFFF"/>
<path d="M204.693 72.152L211.3 41.9486L204.917 38.8923L198.31 69.0957L204.693 72.152Z" fill="#FAFFFF"/>
<path d="M213.232 76.4667L221.367 38.1282L214.985 35.027L206.85 73.4104L213.232 76.4667Z" fill="#FAFFFF"/>
<path d="M221.727 80.7815L226.896 56.8705L220.513 53.8142L215.39 77.7252L221.727 80.7815Z" fill="#FAFFFF"/>
<path d="M215.569 143.57C210.311 157.908 197.726 167.122 184.063 165.189C183.478 165.144 182.984 165.054 182.445 164.919C166.399 161.638 155.073 143.75 156.826 124.064C158.534 105.007 171.972 90.9842 187.568 91.2538C188.647 91.2538 189.726 91.3437 190.804 91.4786C204.423 93.3663 214.895 105.636 217.592 120.918C218.221 124.648 218.401 128.604 218.041 132.604C217.637 136.469 216.828 140.155 215.569 143.57Z" fill="url(#paint32_linear_5_248)"/>
<path d="M215.569 143.525C210.311 157.908 197.726 167.077 184.063 165.144C183.523 165.054 182.984 164.964 182.445 164.875L187.074 129.682L215.569 143.525Z" fill="url(#paint33_linear_5_248)"/>
<path d="M215.569 143.525L187.029 129.682L217.547 120.873C218.176 124.648 218.356 128.559 217.996 132.559C217.637 136.469 216.828 140.155 215.569 143.525Z" fill="url(#paint34_linear_5_248)"/>
<path d="M217.547 120.918L187.029 129.727L187.523 91.2538C188.602 91.2538 189.681 91.3437 190.759 91.4785C204.378 93.3213 214.895 105.591 217.547 120.918Z" fill="url(#paint35_linear_5_248)"/>
<path d="M321.551 329.015L321.506 329.06L286.538 345.286C283.886 346.544 280.83 346.544 278.178 345.286L153.994 288.07C153.634 287.89 153.32 287.711 153.05 287.396C151.567 285.913 151.882 283.171 153.994 282.182L187.209 266.766C190.085 265.418 193.411 265.418 196.243 266.721L321.461 324.476C323.394 325.375 323.439 328.117 321.551 329.015Z" fill="url(#paint36_linear_5_248)"/>
<path opacity="0.8" d="M321.461 333.6L286.493 349.825C283.842 351.084 280.785 351.084 278.133 349.825L153.994 292.61C151.837 291.621 151.522 288.924 153.05 287.396C153.32 287.666 153.634 287.89 153.994 288.07L278.133 345.286C280.785 346.544 283.842 346.544 286.493 345.286L321.461 329.06C321.506 329.06 321.506 329.015 321.506 329.015C323.438 329.959 323.394 332.656 321.461 333.6Z" fill="url(#paint37_linear_5_248)"/>
<path d="M164.646 375.849C164.646 375.849 175.658 389.557 182.355 389.018C189.052 388.478 222.176 367.309 230.356 358.634C238.536 349.915 239.39 337.825 248.694 336.252C257.998 334.679 270.987 334.319 266.852 329.465C262.717 324.611 247.166 320.341 241.997 321.599C236.829 322.858 232.424 325.959 230.446 330.633C228.469 335.263 218.985 347.623 206.221 353.556C193.456 359.488 185.051 361.241 185.051 361.241C185.051 361.241 182.579 371.084 164.646 375.849Z" fill="url(#paint38_linear_5_248)"/>
<path d="M301.505 530.416C301.505 530.416 313.101 536.079 321.596 530.416C330.09 524.753 327.798 518.82 329.776 518.82C331.753 518.82 338.81 523.629 344.473 521.921C350.136 520.214 360.294 513.157 368.249 517.382C376.16 521.607 378.137 523.989 372.204 527.899C366.272 531.809 326.675 551.585 315.933 551.046C305.191 550.507 298.404 552.754 301.505 530.416Z" fill="url(#paint39_linear_5_248)"/>
<path d="M148.735 528.843L136.69 643.724H139.656L155.702 525.202L148.735 528.843Z" fill="url(#paint40_linear_5_248)"/>
<path d="M24.2365 469.56L12.1911 584.486H15.1575L31.203 465.964L24.2365 469.56Z" fill="url(#paint41_linear_5_248)"/>
<path d="M133.589 143.211C133.589 143.211 151.028 178.853 153.14 181.369C155.253 183.886 177.366 221.686 179.523 228.472C181.68 235.259 187.433 239.933 187.433 239.933C187.433 239.933 187.793 236.113 187.433 232.832C187.074 229.551 201.187 242.9 210.041 239.933C218.94 236.967 213.322 231.798 202.31 226.36C191.299 220.922 187.164 211.303 182.445 200.426C177.725 189.55 161.185 165.549 158.983 158.537C156.781 151.526 153.14 129.727 153.14 129.727C153.14 129.727 145.275 139.076 133.589 143.211Z" fill="url(#paint42_linear_5_248)"/>
<path d="M265.054 468.346L273.684 568.575L271.122 571.002L261.009 470.459L265.054 468.346Z" fill="url(#paint43_linear_5_248)"/>
<path d="M296.471 393.422L349.282 549.922L348.293 551.091L290.044 396.928L296.471 393.422Z" fill="url(#paint44_linear_5_248)"/>
<path d="M446.634 322.903L499.445 479.403L498.456 480.572L440.207 326.409L446.634 322.903Z" fill="url(#paint45_linear_5_248)"/>
<g opacity="0.5">
<mask id="mask2_5_248" style="mask-type:alpha" maskUnits="userSpaceOnUse" x="499" y="430" width="88" height="40">
<g opacity="0.5">
<g opacity="0.5">
<path opacity="0.5" d="M499.041 439.087C499.041 439.087 560.616 478.819 582.414 468.032C604.213 457.245 527.536 430.008 527.536 430.008L499.041 439.087Z" fill="url(#paint46_linear_5_248)"/>
</g>
</g>
</mask>
<g mask="url(#mask2_5_248)">
<path opacity="0.5" d="M499.041 439.087C499.041 439.087 560.616 478.819 582.414 468.032C604.213 457.245 527.536 430.008 527.536 430.008L499.041 439.087Z" fill="url(#paint47_linear_5_248)"/>
</g>
</g>
<path d="M492.299 395.804L500.299 436.12C500.299 440.66 508.03 444.301 517.558 444.301C527.086 444.301 534.817 440.615 534.817 436.12L542.817 395.804H492.299Z" fill="url(#paint48_linear_5_248)"/>
<path d="M517.558 407.805C531.508 407.805 542.817 402.432 542.817 395.804C542.817 389.177 531.508 383.804 517.558 383.804C503.608 383.804 492.299 389.177 492.299 395.804C492.299 402.432 503.608 407.805 517.558 407.805Z" fill="url(#paint49_linear_5_248)"/>
<path d="M517.558 406.546C530.044 406.546 540.166 401.737 540.166 395.804C540.166 389.872 530.044 385.062 517.558 385.062C505.072 385.062 494.951 389.872 494.951 395.804C494.951 401.737 505.072 406.546 517.558 406.546Z" fill="url(#paint50_linear_5_248)"/>
<path d="M578.055 375.759C577.201 378.455 566.459 385.242 557.245 384.793C548.031 384.343 539.986 392.973 533.424 394.366C530.952 394.905 529.019 395.714 527.536 396.748L527.491 396.793C525.019 398.501 523.761 400.658 523.716 402.771C523.581 406.142 523.581 406.142 523.581 406.142L522.008 406.546C522.008 406.546 522.187 381.647 533.604 370.59C545.02 359.533 561.11 362.724 568.481 367.084C574.774 370.815 577.875 372.568 578.145 374.68C578.234 374.95 578.19 375.354 578.055 375.759Z" fill="url(#paint51_linear_5_248)"/>
<path d="M578.055 375.759C577.201 378.455 566.459 385.242 557.245 384.793C548.031 384.343 539.986 392.973 533.424 394.366C530.952 394.905 529.019 395.715 527.536 396.748C527.806 396.389 530.457 392.838 534.008 386.725C537.784 380.253 549.874 379.309 560.256 380.793C570.279 382.231 577.605 375.129 578.145 374.59C578.234 374.95 578.19 375.354 578.055 375.759Z" fill="url(#paint52_linear_5_248)"/>
<path d="M559.762 349.511C550.458 356.297 532.39 359.578 529.064 365.601C528.839 366.006 528.705 366.41 528.615 366.859C527.266 373.691 522.098 406.501 522.098 406.501L521.289 406.367C521.289 406.367 527.086 368.927 526.412 362.994C525.738 357.061 521.783 346.634 527.626 334.634C533.469 322.633 534.637 320.071 534.637 320.071L540.166 324.701L537.199 316.655L544.57 304.475L549.02 310.812L546.278 300.7C546.278 300.7 558.279 283.576 562.189 284.924C566.144 286.272 569.38 318.139 569.38 318.139L564.077 320.745L569.38 322.813C569.38 322.813 569.695 342.274 559.762 349.511Z" fill="url(#paint53_linear_5_248)"/>
<path d="M559.762 349.511C550.458 356.297 532.39 359.578 529.064 365.601C529.558 355.578 544.615 349.915 554.099 345.196C563.582 340.476 569.38 322.813 569.38 322.813C569.38 322.813 569.695 342.274 559.762 349.511Z" fill="url(#paint54_linear_5_248)"/>
<path d="M556.391 216.787C556.391 216.787 558.324 227.484 544.211 237.866C530.098 248.248 525.424 251.979 525.424 251.979L529.019 265.058L521.244 259.979C521.244 259.979 499.445 284.564 506.906 301.059C514.367 317.554 522.367 318.633 518.772 330.544C515.176 342.454 517.513 406.501 517.513 406.501L519.76 406.456C519.76 406.456 517.288 341.6 521.199 325.465C525.109 309.284 541.964 275.98 549.155 262.811C556.346 249.642 561.919 228.158 556.391 216.787Z" fill="url(#paint55_linear_5_248)"/>
<path d="M521.244 323.128C521.244 323.128 540.121 301.868 548.121 283.576C556.121 265.283 558.638 233.192 558.638 233.192C558.638 233.192 547.042 258.181 537.154 278.182C527.311 298.138 521.244 323.128 521.244 323.128Z" fill="url(#paint56_linear_5_248)"/>
<path d="M517.558 406.501L515.266 406.456C515.266 406.456 505.827 400.434 499.086 400.029H499.041C497.917 399.984 496.883 400.074 495.984 400.344C489.602 402.456 494.951 413.603 484.613 417.738C474.276 421.873 457.106 434.907 450.949 432.3C450.904 432.3 450.859 432.255 450.814 432.255C450.679 432.165 450.544 432.075 450.41 432.03C450.095 431.806 449.87 431.491 449.69 431.177C447.173 426.098 458.545 409.288 458.545 409.288L462.68 414.682L460.837 406.456C460.837 406.456 469.377 397.108 478.231 394.636C487.085 392.164 492.434 396.254 503.176 399.265C513.962 402.277 517.558 406.501 517.558 406.501Z" fill="url(#paint57_linear_5_248)"/>
<path d="M499.041 400.029C497.917 399.984 496.883 400.074 495.984 400.344C489.602 402.456 494.95 413.603 484.613 417.738C474.276 421.873 457.106 434.907 450.949 432.3C450.904 432.3 450.859 432.255 450.814 432.255C450.679 432.165 450.544 432.075 450.409 432.03C449.69 431.581 449.331 431.311 449.331 431.311C449.331 431.311 449.466 431.266 449.69 431.132C452.028 430.143 464.792 424.659 470.5 421.109C476.748 417.153 484.209 410.367 486.95 404.524C489.332 399.445 497.198 399.849 499.041 400.029Z" fill="url(#paint58_linear_5_248)"/>
<path d="M517.558 407.805L515.266 406.501C515.266 406.501 510.681 384.343 505.378 372.747C505.378 372.747 505.333 372.702 505.288 372.568C504.299 370.41 503.265 368.657 502.277 367.489C495.849 359.893 477.826 346.769 473.332 323.128C468.792 299.486 454.185 286.227 455.713 283.576C457.241 280.924 485.377 281.014 499.041 303.621C512.659 326.229 514.367 340.836 511.266 349.511C508.164 358.185 505.872 359.623 508.749 372.523C511.625 385.422 517.558 407.805 517.558 407.805Z" fill="url(#paint59_linear_5_248)"/>
<path d="M505.288 372.568C504.299 370.41 503.265 368.657 502.277 367.489C495.849 359.893 477.826 346.769 473.332 323.128C468.792 299.486 454.185 286.227 455.713 283.576C455.713 283.576 473.377 290.497 475.129 306.453C476.882 322.408 480.074 331.622 485.782 336.386C491.445 341.151 501.782 342.948 502.816 356.297C503.67 367.983 505.018 371.803 505.288 372.568Z" fill="url(#paint60_linear_5_248)"/>
<path d="M517.558 406.501L516.704 407.265C516.704 407.265 513.333 402.097 509.378 396.613C509.378 396.613 509.378 396.613 509.378 396.568C506.726 392.883 503.85 389.063 501.513 386.501C495.625 380.029 486.636 381.377 478.95 383.759C471.264 386.141 456.972 382.006 456.972 382.006L450.949 374.59V379.579C450.949 379.579 443.263 379.13 434.454 373.242C425.914 367.534 422.139 357.87 421.914 357.286C422.319 357.736 426.409 362.41 432.162 361.915C438.184 361.421 452.028 354.23 452.028 354.23L453.376 360.522L454.904 355.039C454.904 355.039 462.095 351.983 477.467 357.556C492.793 363.129 494.456 373.826 502.456 383.714C510.367 393.692 517.558 406.501 517.558 406.501Z" fill="url(#paint61_linear_5_248)"/>
<path d="M509.333 396.613C506.681 392.928 503.805 389.108 501.468 386.546C495.58 380.073 486.591 381.422 478.905 383.804C471.219 386.186 456.927 382.051 456.927 382.051L450.904 374.635C450.904 374.635 455.129 376.927 467.893 376.478C480.703 376.028 486.546 374.905 494.906 379.939C503.041 384.793 508.973 395.894 509.333 396.613Z" fill="url(#paint62_linear_5_248)"/>
<path d="M66.7549 72.152L66.7998 91.2089C66.7998 91.2089 74.3956 97.9956 87.1601 94.1303C99.9246 90.265 103.251 81.6355 103.251 81.6355L66.7549 72.152Z" fill="#FFC062"/>
<path d="M98.5763 190.943C98.5763 190.943 166.354 171.032 169.141 168.2C171.927 165.369 175.613 153.593 184.063 152.784C192.467 151.975 193.276 152.065 193.276 152.065C193.276 152.065 193.456 154.987 189.905 156.605C186.31 158.178 212.738 146.042 213.861 147.66C215.03 149.233 203.479 156.245 202.355 158.537C201.232 160.784 198.67 179.527 193.276 182.718C187.883 185.909 178.31 183.392 170.174 186.538C161.994 189.684 104.419 222.585 92.4637 222.585C80.5082 222.585 79.834 211.393 79.834 211.393C79.834 211.393 91.1603 200.606 98.5763 190.943Z" fill="url(#paint63_linear_5_248)"/>
<path d="M144.6 198.943C144.6 198.943 150.353 207.168 148.286 212.022C146.263 216.831 143.971 219.214 145.005 223.259C146.039 227.304 149.769 227.259 147.117 236.742C144.466 246.271 143.072 254.631 139.027 255.844C134.982 257.058 123.566 258.406 123.566 258.406L121.498 274.317L85.0477 270.002C85.0477 270.002 93.0929 240.248 93.9918 234.675C94.8458 229.102 108.419 194.988 117.453 191.887C126.442 188.741 144.6 198.943 144.6 198.943Z" fill="url(#paint64_linear_5_248)"/>
<path d="M151.927 186.763C158.174 198.134 138.308 205.55 133.903 207.932C129.499 210.314 131.971 230.405 128.87 230.45C125.768 230.495 126.712 216.202 121.274 215.124C115.835 214.045 114.442 222.405 116.689 229.686C118.937 237.012 112.869 247.439 98.756 249.282C84.6881 251.125 73.9012 237.327 74.4405 223.618C74.9799 209.865 83.0251 205.505 83.0251 205.505C83.0251 205.505 80.643 180.156 105.992 179.976C131.297 179.796 150.129 183.527 151.927 186.763Z" fill="url(#paint65_linear_5_248)"/>
<path d="M84.3285 255.215C84.3285 255.215 62.7547 249.821 57.6309 265.058C52.5071 280.294 64.3727 369.152 64.193 381.422C64.0132 393.692 64.0581 396.344 64.0581 396.344C64.0581 396.344 62.9345 435.491 92.5985 440.93C122.263 446.413 159.612 420.794 160.241 413.288C160.826 405.737 153.32 366.455 153.32 366.455L161.725 376.253C161.725 376.253 177.501 374.725 182.4 366.365C187.299 358.005 186.624 355.983 186.624 355.983C186.624 355.983 157.545 297.554 150.578 288.789C145.859 282.811 121.543 267.395 121.543 267.395C121.543 267.395 95.8795 254.721 84.3285 255.215Z" fill="url(#paint66_linear_5_248)"/>
<path d="M152.601 509.202L130.577 416.075C128.105 405.692 120.959 397.063 111.251 392.703L24.5511 354.05C15.8766 350.185 6.52792 357.915 8.64036 367.174L31.5625 466.638L146.578 519.674L148.735 528.843L265.054 468.391V466.863C265.054 461.02 258.897 457.155 253.638 459.762L152.601 509.202Z" fill="url(#paint67_linear_5_248)"/>
<path d="M17.18 358.859L103.88 397.512C113.633 401.872 120.779 410.502 123.206 420.884L148.735 528.843L34.3941 476.122C27.9669 473.156 23.2926 467.403 21.7195 460.526L1.31425 371.983C-0.843134 362.725 8.50553 354.994 17.18 358.859Z" fill="url(#paint68_linear_5_248)" stroke="#9AB4DB" stroke-width="0.25" stroke-miterlimit="10"/>
<path opacity="0.15" d="M126.982 134.222C126.982 134.222 124.555 112.648 122.712 102.985C120.914 93.2764 120.914 93.2764 120.914 93.2764C120.914 93.2764 132.24 110.176 133.589 118.985C134.937 127.794 142.443 139.57 142.443 139.57L133.589 143.166L126.982 134.222Z" fill="url(#paint69_linear_5_248)"/>
<path opacity="0.15" d="M74.4406 128.334L98.5763 190.943L109.453 187.752L74.4406 128.334Z" fill="url(#paint70_linear_5_248)"/>
<path opacity="0.15" d="M41.2258 147.481L74.3956 205.011C74.3956 205.011 52.4173 171.437 46.9789 167.481C41.5404 163.526 36.4616 205.37 36.4616 205.37L41.2258 147.481Z" fill="url(#paint71_linear_5_248)"/>
<path d="M66.7998 91.2089C66.7998 91.2089 74.6203 94.3101 80.9127 94.2202C87.2051 94.1303 89.8119 94.2202 89.8119 94.2202L83.6544 104.603C83.6544 104.603 61.2266 96.1079 61.2266 93.2764C61.2715 90.4448 65.002 89.8156 66.7998 91.2089Z" fill="white"/>
<path d="M89.8119 94.2202L100.554 97.5462L105.588 85.1412H97.0481L89.8119 94.2202Z" fill="white"/>
<path d="M112.464 38.2181C112.464 38.2181 119.026 49.7242 118.352 58.7582C117.633 67.8372 118.577 87.5683 112.464 90.265C106.352 92.9617 92.9581 92.5123 86.6208 91.2089C80.2835 89.9054 70.1707 82.1299 69.0021 77.3207C67.8336 72.5115 76.2833 50.5332 78.3957 48.3758C80.4632 46.2184 112.464 38.2181 112.464 38.2181Z" fill="url(#paint72_linear_5_248)"/>
<path d="M117.633 28.8245C123.027 35.1169 115.521 41.8138 105.633 45.769C95.7447 49.7242 90.8007 47.8814 90.576 51.8816C90.3512 55.8817 91.0254 60.1066 87.2949 61.9943C83.5195 63.882 89.6321 76.1521 87.2949 76.8263C84.9578 77.5005 81.9015 60.2414 76.4631 60.8707C71.0696 61.4999 72.2382 67.8822 75.5192 73.0509C78.8002 78.2196 79.5643 83.703 72.7326 85.9952C65.9009 88.3324 60.2378 82.04 53.406 68.7361C46.5743 55.3873 54.3499 41.7688 54.3499 41.7688C54.3499 41.7688 48.1025 30.7123 64.8671 25.0491C81.6318 19.4309 111.97 22.2625 117.633 28.8245Z" fill="url(#paint73_linear_5_248)"/>
<path opacity="0.24" d="M153.32 366.455C153.32 366.455 147.612 344.072 142.937 333.016C138.263 321.959 138.263 321.959 138.263 321.959L151.073 423.536C151.073 423.536 160.241 416.344 160.197 413.288C160.152 410.232 153.32 366.455 153.32 366.455Z" fill="url(#paint74_linear_5_248)"/>
<defs>
<linearGradient id="paint0_linear_5_248" x1="12.2017" y1="580.603" x2="344.302" y2="580.603" gradientUnits="userSpaceOnUse">
<stop stop-color="white"/>
<stop offset="0.9946"/>
</linearGradient>
<linearGradient id="paint1_linear_5_248" x1="12.2017" y1="580.603" x2="344.302" y2="580.603" gradientUnits="userSpaceOnUse">
<stop stop-color="#001952"/>
<stop offset="0.9946" stop-color="#001952"/>
</linearGradient>
<linearGradient id="paint2_linear_5_248" x1="301.487" y1="350.257" x2="301.487" y2="514.271" gradientUnits="userSpaceOnUse">
<stop stop-color="white"/>
<stop offset="0.9946"/>
</linearGradient>
<linearGradient id="paint3_linear_5_248" x1="301.487" y1="350.257" x2="301.487" y2="514.271" gradientUnits="userSpaceOnUse">
<stop stop-color="#001952"/>
<stop offset="0.9946" stop-color="#001952"/>
</linearGradient>
<linearGradient id="paint4_linear_5_248" x1="24.8109" y1="261.659" x2="151.061" y2="259.528" gradientUnits="userSpaceOnUse">
<stop stop-color="#001952"/>
<stop offset="0.9946" stop-color="#1D3B77"/>
</linearGradient>
<linearGradient id="paint5_linear_5_248" x1="132.032" y1="477.545" x2="259.057" y2="477.545" gradientUnits="userSpaceOnUse">
<stop stop-color="#F9F9F9"/>
<stop offset="1" stop-color="#DBDAE8"/>
</linearGradient>
<linearGradient id="paint6_linear_5_248" x1="300.758" y1="524.792" x2="332.172" y2="524.792" gradientUnits="userSpaceOnUse">
<stop stop-color="#FFF39F"/>
<stop offset="1" stop-color="#FFB761"/>
</linearGradient>
<linearGradient id="paint7_linear_5_248" x1="55.4122" y1="444.432" x2="326.119" y2="444.432" gradientUnits="userSpaceOnUse">
<stop stop-color="#001952"/>
<stop offset="0.9946" stop-color="#1D3B77"/>
</linearGradient>
<linearGradient id="paint8_linear_5_248" x1="251.562" y1="204.325" x2="251.562" y2="368.339" gradientUnits="userSpaceOnUse">
<stop stop-color="#08C4FF"/>
<stop offset="1" stop-color="#0082B8"/>
</linearGradient>
<linearGradient id="paint9_linear_5_248" x1="251.562" y1="197.992" x2="251.562" y2="362.007" gradientUnits="userSpaceOnUse">
<stop stop-color="#F9F9F9"/>
<stop offset="1" stop-color="#DBDAE8"/>
</linearGradient>
<linearGradient id="paint10_linear_5_248" x1="303.73" y1="159.339" x2="351.541" y2="260.665" gradientUnits="userSpaceOnUse">
<stop stop-color="#7D94D3"/>
<stop offset="1" stop-color="#A7B4E8"/>
</linearGradient>
<linearGradient id="paint11_linear_5_248" x1="399.289" y1="233.957" x2="250.124" y2="164.25" gradientUnits="userSpaceOnUse">
<stop stop-color="#7D94D3"/>
<stop offset="0.1973" stop-color="white"/>
<stop offset="1" stop-color="#A7B4E8"/>
</linearGradient>
<linearGradient id="paint12_linear_5_248" x1="315.42" y1="91.8372" x2="315.42" y2="248.189" gradientUnits="userSpaceOnUse">
<stop stop-color="#08C4FF"/>
<stop offset="1" stop-color="#0082B8"/>
</linearGradient>
<linearGradient id="paint13_linear_5_248" x1="324.651" y1="288.574" x2="291.423" y2="272.14" gradientUnits="userSpaceOnUse">
<stop stop-color="#7D94D3"/>
<stop offset="1" stop-color="#A7B4E8"/>
</linearGradient>
<linearGradient id="paint14_linear_5_248" x1="318.658" y1="300.691" x2="285.43" y2="284.258" gradientUnits="userSpaceOnUse">
<stop stop-color="#7D94D3"/>
<stop offset="1" stop-color="#A7B4E8"/>
</linearGradient>
<linearGradient id="paint15_linear_5_248" x1="305.951" y1="269.027" x2="296.885" y2="292.8" gradientUnits="userSpaceOnUse">
<stop stop-color="#7D94D3"/>
<stop offset="0.2568" stop-color="#DCE2F4"/>
<stop offset="1" stop-color="#A7B4E8"/>
</linearGradient>
<linearGradient id="paint16_linear_5_248" x1="376.122" y1="212.663" x2="259.085" y2="154.781" gradientUnits="userSpaceOnUse">
<stop offset="0.0108108" stop-color="#009BD0"/>
<stop offset="0.9946" stop-color="#1D3B77"/>
</linearGradient>
<linearGradient id="paint17_linear_5_248" x1="345.791" y1="202.238" x2="216.51" y2="138.3" gradientUnits="userSpaceOnUse">
<stop offset="0.0108108" stop-color="#009BD0"/>
<stop offset="0.9946" stop-color="#1D3B77"/>
</linearGradient>
<linearGradient id="paint18_linear_5_248" x1="441.036" y1="133.68" x2="300.176" y2="64.015" gradientUnits="userSpaceOnUse">
<stop offset="0.0108108" stop-color="#009BD0"/>
<stop offset="0.9946" stop-color="#1D3B77"/>
</linearGradient>
<linearGradient id="paint19_linear_5_248" x1="405.28" y1="120.981" x2="249.788" y2="44.08" gradientUnits="userSpaceOnUse">
<stop stop-color="#08C4FF"/>
<stop offset="1" stop-color="#50CEFF"/>
</linearGradient>
<linearGradient id="paint20_linear_5_248" x1="294.536" y1="163.727" x2="301.628" y2="163.727" gradientUnits="userSpaceOnUse">
<stop stop-color="#F97A53"/>
<stop offset="1" stop-color="#FC536D"/>
</linearGradient>
<linearGradient id="paint21_linear_5_248" x1="286.903" y1="198.957" x2="293.994" y2="198.957" gradientUnits="userSpaceOnUse">
<stop stop-color="#F97A53"/>
<stop offset="1" stop-color="#FC536D"/>
</linearGradient>
<linearGradient id="paint22_linear_5_248" x1="260.791" y1="114.199" x2="216.969" y2="193.417" gradientUnits="userSpaceOnUse">
<stop stop-color="#08C4FF"/>
<stop offset="1" stop-color="#0082B8"/>
</linearGradient>
<linearGradient id="paint23_linear_5_248" x1="221.206" y1="179.362" x2="246.666" y2="179.362" gradientUnits="userSpaceOnUse">
<stop stop-color="#F97A53"/>
<stop offset="1" stop-color="#FC536D"/>
</linearGradient>
<linearGradient id="paint24_linear_5_248" x1="551.319" y1="245.327" x2="411.384" y2="176.12" gradientUnits="userSpaceOnUse">
<stop offset="0.0108108" stop-color="#009BD0"/>
<stop offset="0.9946" stop-color="#1D3B77"/>
</linearGradient>
<linearGradient id="paint25_linear_5_248" x1="516.077" y1="232.551" x2="361.636" y2="156.17" gradientUnits="userSpaceOnUse">
<stop stop-color="#08C4FF"/>
<stop offset="1" stop-color="#0082B8"/>
</linearGradient>
<linearGradient id="paint26_linear_5_248" x1="438.809" y1="208.913" x2="372.938" y2="176.335" gradientUnits="userSpaceOnUse">
<stop stop-color="#F97A53"/>
<stop offset="1" stop-color="#FC536D"/>
</linearGradient>
<linearGradient id="paint27_linear_5_248" x1="466.773" y1="293.326" x2="377.441" y2="249.145" gradientUnits="userSpaceOnUse">
<stop offset="0.0108108" stop-color="#009BD0"/>
<stop offset="0.9946" stop-color="#1D3B77"/>
</linearGradient>
<linearGradient id="paint28_linear_5_248" x1="444.275" y1="285.17" x2="345.683" y2="236.41" gradientUnits="userSpaceOnUse">
<stop stop-color="#08C4FF"/>
<stop offset="1" stop-color="#0082B8"/>
</linearGradient>
<linearGradient id="paint29_linear_5_248" x1="416.687" y1="261.86" x2="374.636" y2="241.063" gradientUnits="userSpaceOnUse">
<stop stop-color="#F97A53"/>
<stop offset="1" stop-color="#FC536D"/>
</linearGradient>
<linearGradient id="paint30_linear_5_248" x1="266.409" y1="76.5173" x2="183.873" y2="35.6982" gradientUnits="userSpaceOnUse">
<stop stop-color="#A83838"/>
<stop offset="1" stop-color="#FC536D"/>
</linearGradient>
<linearGradient id="paint31_linear_5_248" x1="245.417" y1="69.0934" x2="154.303" y2="24.0315" gradientUnits="userSpaceOnUse">
<stop stop-color="#F97A53"/>
<stop offset="1" stop-color="#FC536D"/>
</linearGradient>
<linearGradient id="paint32_linear_5_248" x1="154.877" y1="128.319" x2="215.27" y2="145.127" gradientUnits="userSpaceOnUse">
<stop stop-color="#08C4FF"/>
<stop offset="1" stop-color="#0082B8"/>
</linearGradient>
<linearGradient id="paint33_linear_5_248" x1="182.131" y1="147.335" x2="212.188" y2="155.7" gradientUnits="userSpaceOnUse">
<stop stop-color="#F97A53"/>
<stop offset="1" stop-color="#FC536D"/>
</linearGradient>
<linearGradient id="paint34_linear_5_248" x1="186.71" y1="130.882" x2="216.901" y2="139.284" gradientUnits="userSpaceOnUse">
<stop stop-color="#FDC61F"/>
<stop offset="1" stop-color="#FC536D"/>
</linearGradient>
<linearGradient id="paint35_linear_5_248" x1="182.203" y1="110.453" x2="217.709" y2="120.334" gradientUnits="userSpaceOnUse">
<stop stop-color="#08C4FF"/>
<stop offset="1" stop-color="#50CEFF"/>
</linearGradient>
<linearGradient id="paint36_linear_5_248" x1="152.095" y1="306.019" x2="322.947" y2="306.019" gradientUnits="userSpaceOnUse">
<stop stop-color="#08C4FF"/>
<stop offset="1" stop-color="#0082B8"/>
</linearGradient>
<linearGradient id="paint37_linear_5_248" x1="152.095" y1="319.074" x2="322.947" y2="319.074" gradientUnits="userSpaceOnUse">
<stop offset="0.0108108" stop-color="#009BD0"/>
<stop offset="0.9946" stop-color="#1D3B77"/>
</linearGradient>
<linearGradient id="paint38_linear_5_248" x1="166.578" y1="351.47" x2="265.494" y2="359.259" gradientUnits="userSpaceOnUse">
<stop stop-color="#FFF39F"/>
<stop offset="1" stop-color="#FFB761"/>
</linearGradient>
<linearGradient id="paint39_linear_5_248" x1="300.758" y1="533.58" x2="375.664" y2="533.58" gradientUnits="userSpaceOnUse">
<stop stop-color="#001952"/>
<stop offset="0.9946" stop-color="#1D3B77"/>
</linearGradient>
<linearGradient id="paint40_linear_5_248" x1="136.693" y1="584.466" x2="155.687" y2="584.466" gradientUnits="userSpaceOnUse">
<stop stop-color="#EDEAEF"/>
<stop offset="1" stop-color="#DBDAE8"/>
</linearGradient>
<linearGradient id="paint41_linear_5_248" x1="12.2017" y1="525.216" x2="31.1962" y2="525.216" gradientUnits="userSpaceOnUse">
<stop stop-color="#EDEAEF"/>
<stop offset="1" stop-color="#DBDAE8"/>
</linearGradient>
<linearGradient id="paint42_linear_5_248" x1="134.311" y1="185.781" x2="213.561" y2="184.443" gradientUnits="userSpaceOnUse">
<stop stop-color="#FFF39F"/>
<stop offset="1" stop-color="#FFB761"/>
</linearGradient>
<linearGradient id="paint43_linear_5_248" x1="261.027" y1="519.69" x2="273.669" y2="519.69" gradientUnits="userSpaceOnUse">
<stop stop-color="#EDEAEF"/>
<stop offset="1" stop-color="#DBDAE8"/>
</linearGradient>
<linearGradient id="paint44_linear_5_248" x1="290.064" y1="472.242" x2="349.293" y2="472.242" gradientUnits="userSpaceOnUse">
<stop stop-color="#08C4FF"/>
<stop offset="1" stop-color="#0082B8"/>
</linearGradient>
<linearGradient id="paint45_linear_5_248" x1="440.226" y1="401.726" x2="499.455" y2="401.726" gradientUnits="userSpaceOnUse">
<stop stop-color="#08C4FF"/>
<stop offset="1" stop-color="#0082B8"/>
</linearGradient>
<linearGradient id="paint46_linear_5_248" x1="499.041" y1="449.923" x2="586.327" y2="449.923" gradientUnits="userSpaceOnUse">
<stop stop-color="white"/>
<stop offset="0.9946"/>
</linearGradient>
<linearGradient id="paint47_linear_5_248" x1="499.041" y1="449.923" x2="586.327" y2="449.923" gradientUnits="userSpaceOnUse">
<stop stop-color="#001952"/>
<stop offset="0.9946" stop-color="#001952"/>
</linearGradient>
<linearGradient id="paint48_linear_5_248" x1="492.276" y1="420.049" x2="542.802" y2="420.049" gradientUnits="userSpaceOnUse">
<stop stop-color="#F5F2ED"/>
<stop offset="1" stop-color="#CDC9C4"/>
</linearGradient>
<linearGradient id="paint49_linear_5_248" x1="552.149" y1="385.895" x2="479.195" y2="406.739" gradientUnits="userSpaceOnUse">
<stop stop-color="#F5F2ED"/>
<stop offset="1" stop-color="#CDC9C4"/>
</linearGradient>
<linearGradient id="paint50_linear_5_248" x1="548.488" y1="386.941" x2="483.252" y2="405.58" gradientUnits="userSpaceOnUse">
<stop stop-color="#08C4FF"/>
<stop offset="1" stop-color="#0082B8"/>
</linearGradient>
<linearGradient id="paint51_linear_5_248" x1="565.783" y1="364.614" x2="537.438" y2="389.74" gradientUnits="userSpaceOnUse">
<stop stop-color="#08C4FF"/>
<stop offset="1" stop-color="#00B3EA"/>
</linearGradient>
<linearGradient id="paint52_linear_5_248" x1="591.029" y1="372.972" x2="509.583" y2="396.242" gradientUnits="userSpaceOnUse">
<stop stop-color="#08C4FF"/>
<stop offset="1" stop-color="#0082B8"/>
</linearGradient>
<linearGradient id="paint53_linear_5_248" x1="579.096" y1="312.05" x2="529.517" y2="356" gradientUnits="userSpaceOnUse">
<stop stop-color="#08C4FF"/>
<stop offset="1" stop-color="#00B3EA"/>
</linearGradient>
<linearGradient id="paint54_linear_5_248" x1="571.751" y1="329.845" x2="545.674" y2="352.962" gradientUnits="userSpaceOnUse">
<stop stop-color="#08C4FF"/>
<stop offset="1" stop-color="#0082B8"/>
</linearGradient>
<linearGradient id="paint55_linear_5_248" x1="589.741" y1="265.85" x2="520.725" y2="327.03" gradientUnits="userSpaceOnUse">
<stop stop-color="#08C4FF"/>
<stop offset="1" stop-color="#00B3EA"/>
</linearGradient>
<linearGradient id="paint56_linear_5_248" x1="569.531" y1="251.92" x2="530.493" y2="286.526" gradientUnits="userSpaceOnUse">
<stop stop-color="#08C4FF"/>
<stop offset="1" stop-color="#0082B8"/>
</linearGradient>
<linearGradient id="paint57_linear_5_248" x1="502.521" y1="394.547" x2="472.581" y2="421.088" gradientUnits="userSpaceOnUse">
<stop stop-color="#08C4FF"/>
<stop offset="1" stop-color="#00B3EA"/>
</linearGradient>
<linearGradient id="paint58_linear_5_248" x1="495.229" y1="400.032" x2="469.415" y2="422.915" gradientUnits="userSpaceOnUse">
<stop stop-color="#08C4FF"/>
<stop offset="1" stop-color="#0082B8"/>
</linearGradient>
<linearGradient id="paint59_linear_5_248" x1="512.894" y1="322.363" x2="487.588" y2="344.797" gradientUnits="userSpaceOnUse">
<stop stop-color="#08C4FF"/>
<stop offset="1" stop-color="#00B3EA"/>
</linearGradient>
<linearGradient id="paint60_linear_5_248" x1="490.51" y1="319.192" x2="479.115" y2="329.293" gradientUnits="userSpaceOnUse">
<stop stop-color="#08C4FF"/>
<stop offset="1" stop-color="#0082B8"/>
</linearGradient>
<linearGradient id="paint61_linear_5_248" x1="487.33" y1="366.296" x2="466.173" y2="385.051" gradientUnits="userSpaceOnUse">
<stop stop-color="#08C4FF"/>
<stop offset="1" stop-color="#00B3EA"/>
</linearGradient>
<linearGradient id="paint62_linear_5_248" x1="492.167" y1="374.926" x2="468.923" y2="395.53" gradientUnits="userSpaceOnUse">
<stop stop-color="#08C4FF"/>
<stop offset="1" stop-color="#0082B8"/>
</linearGradient>
<linearGradient id="paint63_linear_5_248" x1="79.7584" y1="185.028" x2="213.87" y2="185.028" gradientUnits="userSpaceOnUse">
<stop stop-color="#FFF39F"/>
<stop offset="1" stop-color="#FFB761"/>
</linearGradient>
<linearGradient id="paint64_linear_5_248" x1="84.4098" y1="233.425" x2="149.107" y2="232.331" gradientUnits="userSpaceOnUse">
<stop stop-color="#FFF39F"/>
<stop offset="1" stop-color="#FFB761"/>
</linearGradient>
<linearGradient id="paint65_linear_5_248" x1="74.2647" y1="215.203" x2="153.512" y2="213.863" gradientUnits="userSpaceOnUse">
<stop stop-color="#001952"/>
<stop offset="0.9946" stop-color="#1D3B77"/>
</linearGradient>
<linearGradient id="paint66_linear_5_248" x1="50.8177" y1="345.042" x2="186.677" y2="355.74" gradientUnits="userSpaceOnUse">
<stop stop-color="#F97A53"/>
<stop offset="1" stop-color="#FC536D"/>
</linearGradient>
<linearGradient id="paint67_linear_5_248" x1="8.31787" y1="440.946" x2="265.068" y2="440.946" gradientUnits="userSpaceOnUse">
<stop stop-color="#08C4FF"/>
<stop offset="1" stop-color="#0082B8"/>
</linearGradient>
<linearGradient id="paint68_linear_5_248" x1="0.965922" y1="443.33" x2="148.75" y2="443.33" gradientUnits="userSpaceOnUse">
<stop stop-color="#F9F9F9"/>
<stop offset="1" stop-color="#DBDAE8"/>
</linearGradient>
<linearGradient id="paint69_linear_5_248" x1="121.346" y1="118.342" x2="142.064" y2="117.992" gradientUnits="userSpaceOnUse">
<stop stop-color="#001952"/>
<stop offset="0.9946" stop-color="#1D3B77"/>
</linearGradient>
<linearGradient id="paint70_linear_5_248" x1="74.428" y1="159.642" x2="109.442" y2="159.642" gradientUnits="userSpaceOnUse">
<stop stop-color="#001952"/>
<stop offset="0.9946" stop-color="#1D3B77"/>
</linearGradient>
<linearGradient id="paint71_linear_5_248" x1="36.4858" y1="176.423" x2="74.428" y2="176.423" gradientUnits="userSpaceOnUse">
<stop stop-color="#001952"/>
<stop offset="0.9946" stop-color="#1D3B77"/>
</linearGradient>
<linearGradient id="paint72_linear_5_248" x1="68.8398" y1="65.2625" x2="118.376" y2="65.2625" gradientUnits="userSpaceOnUse">
<stop stop-color="#FFF39F"/>
<stop offset="1" stop-color="#FFB761"/>
</linearGradient>
<linearGradient id="paint73_linear_5_248" x1="50.6303" y1="54.2578" x2="119.426" y2="54.2578" gradientUnits="userSpaceOnUse">
<stop stop-color="#001952"/>
<stop offset="0.9946" stop-color="#1D3B77"/>
</linearGradient>
<linearGradient id="paint74_linear_5_248" x1="160.218" y1="372.738" x2="138.282" y2="372.738" gradientUnits="userSpaceOnUse">
<stop stop-color="#001952"/>
<stop offset="0.9946" stop-color="#1D3B77"/>
</linearGradient>
</defs>
</svg>
